<mxfile host="app.diagrams.net" modified="2021-08-16T12:00:57.016Z" agent="5.0 (Windows NT 6.1; Win64; x64) AppleWebKit/537.36 (KHTML, like Gecko) Chrome/92.0.4515.131 Safari/537.36" etag="sabRXbajWGmNN5e5i9TZ" version="14.9.6" type="github">
  <diagram id="v64572_YNYcbEFswRbN0" name="Page-1">
    <mxGraphModel dx="868" dy="450" grid="1" gridSize="10" guides="1" tooltips="1" connect="1" arrows="1" fold="1" page="1" pageScale="1" pageWidth="850" pageHeight="1100" math="0" shadow="0">
      <root>
        <mxCell id="0" />
        <mxCell id="1" parent="0" />
        <mxCell id="6TqKGEjyONFh63FSuyH1-2" value="Articulo" style="rounded=0;whiteSpace=wrap;html=1;" parent="1" vertex="1">
          <mxGeometry x="140" y="270" width="120" height="60" as="geometry" />
        </mxCell>
        <mxCell id="6TqKGEjyONFh63FSuyH1-6" value="" style="endArrow=none;html=1;" parent="1" target="6TqKGEjyONFh63FSuyH1-7" edge="1">
          <mxGeometry width="50" height="50" relative="1" as="geometry">
            <mxPoint x="260" y="300" as="sourcePoint" />
            <mxPoint x="310" y="300" as="targetPoint" />
          </mxGeometry>
        </mxCell>
        <mxCell id="6TqKGEjyONFh63FSuyH1-7" value="nombre" style="ellipse;whiteSpace=wrap;html=1;" parent="1" vertex="1">
          <mxGeometry x="300" y="220" width="90" height="60" as="geometry" />
        </mxCell>
        <mxCell id="6TqKGEjyONFh63FSuyH1-8" value="precio" style="ellipse;whiteSpace=wrap;html=1;" parent="1" vertex="1">
          <mxGeometry x="290" y="330" width="100" height="50" as="geometry" />
        </mxCell>
        <mxCell id="6TqKGEjyONFh63FSuyH1-9" value="cantidad disponible" style="ellipse;whiteSpace=wrap;html=1;" parent="1" vertex="1">
          <mxGeometry x="260" y="390" width="100" height="50" as="geometry" />
        </mxCell>
        <mxCell id="6TqKGEjyONFh63FSuyH1-10" value="&lt;b&gt;&lt;u&gt;id&lt;/u&gt;&lt;/b&gt;" style="ellipse;whiteSpace=wrap;html=1;" parent="1" vertex="1">
          <mxGeometry x="50" y="270" width="70" height="30" as="geometry" />
        </mxCell>
        <mxCell id="6TqKGEjyONFh63FSuyH1-11" value="descripción" style="ellipse;whiteSpace=wrap;html=1;" parent="1" vertex="1">
          <mxGeometry x="50" y="330" width="70" height="40" as="geometry" />
        </mxCell>
        <mxCell id="6TqKGEjyONFh63FSuyH1-12" value="" style="endArrow=none;html=1;entryX=1;entryY=1;entryDx=0;entryDy=0;exitX=0.25;exitY=0.08;exitDx=0;exitDy=0;exitPerimeter=0;" parent="1" source="6TqKGEjyONFh63FSuyH1-8" target="6TqKGEjyONFh63FSuyH1-2" edge="1">
          <mxGeometry width="50" height="50" relative="1" as="geometry">
            <mxPoint x="400" y="260" as="sourcePoint" />
            <mxPoint x="450" y="210" as="targetPoint" />
          </mxGeometry>
        </mxCell>
        <mxCell id="6TqKGEjyONFh63FSuyH1-13" value="" style="endArrow=none;html=1;exitX=0.7;exitY=0.04;exitDx=0;exitDy=0;exitPerimeter=0;" parent="1" source="6TqKGEjyONFh63FSuyH1-9" edge="1">
          <mxGeometry width="50" height="50" relative="1" as="geometry">
            <mxPoint x="175" y="380" as="sourcePoint" />
            <mxPoint x="225" y="330" as="targetPoint" />
          </mxGeometry>
        </mxCell>
        <mxCell id="6TqKGEjyONFh63FSuyH1-14" value="" style="endArrow=none;html=1;exitX=1;exitY=0;exitDx=0;exitDy=0;" parent="1" source="6TqKGEjyONFh63FSuyH1-11" edge="1">
          <mxGeometry width="50" height="50" relative="1" as="geometry">
            <mxPoint x="90" y="360" as="sourcePoint" />
            <mxPoint x="140" y="310" as="targetPoint" />
          </mxGeometry>
        </mxCell>
        <mxCell id="6TqKGEjyONFh63FSuyH1-15" value="" style="endArrow=none;html=1;exitX=1;exitY=0.5;exitDx=0;exitDy=0;" parent="1" source="6TqKGEjyONFh63FSuyH1-10" edge="1">
          <mxGeometry width="50" height="50" relative="1" as="geometry">
            <mxPoint x="90" y="330" as="sourcePoint" />
            <mxPoint x="140" y="280" as="targetPoint" />
          </mxGeometry>
        </mxCell>
        <mxCell id="6TqKGEjyONFh63FSuyH1-16" value="" style="endArrow=none;html=1;startArrow=none;" parent="1" source="6TqKGEjyONFh63FSuyH1-20" edge="1">
          <mxGeometry width="50" height="50" relative="1" as="geometry">
            <mxPoint x="190" y="440" as="sourcePoint" />
            <mxPoint x="190" y="330" as="targetPoint" />
          </mxGeometry>
        </mxCell>
        <mxCell id="6TqKGEjyONFh63FSuyH1-23" value="" style="edgeStyle=none;rounded=0;orthogonalLoop=1;jettySize=auto;html=1;endArrow=none;endFill=0;" parent="1" source="6TqKGEjyONFh63FSuyH1-18" target="6TqKGEjyONFh63FSuyH1-20" edge="1">
          <mxGeometry relative="1" as="geometry" />
        </mxCell>
        <mxCell id="6TqKGEjyONFh63FSuyH1-18" value="Categoría" style="rounded=0;whiteSpace=wrap;html=1;" parent="1" vertex="1">
          <mxGeometry x="130" y="470" width="120" height="60" as="geometry" />
        </mxCell>
        <mxCell id="6TqKGEjyONFh63FSuyH1-20" value="pertenece" style="rhombus;whiteSpace=wrap;html=1;" parent="1" vertex="1">
          <mxGeometry x="155" y="360" width="70" height="70" as="geometry" />
        </mxCell>
        <mxCell id="6TqKGEjyONFh63FSuyH1-22" value="" style="endArrow=none;html=1;" parent="1" target="6TqKGEjyONFh63FSuyH1-20" edge="1">
          <mxGeometry width="50" height="50" relative="1" as="geometry">
            <mxPoint x="190" y="440" as="sourcePoint" />
            <mxPoint x="190" y="330" as="targetPoint" />
          </mxGeometry>
        </mxCell>
        <mxCell id="6TqKGEjyONFh63FSuyH1-24" value="" style="endArrow=none;html=1;" parent="1" edge="1">
          <mxGeometry width="50" height="50" relative="1" as="geometry">
            <mxPoint x="260" y="310" as="sourcePoint" />
            <mxPoint x="570" y="310" as="targetPoint" />
          </mxGeometry>
        </mxCell>
        <mxCell id="6TqKGEjyONFh63FSuyH1-34" value="&lt;b&gt;&lt;u&gt;id&lt;/u&gt;&lt;/b&gt;" style="ellipse;whiteSpace=wrap;html=1;" parent="1" vertex="1">
          <mxGeometry x="510" y="60" width="70" height="30" as="geometry" />
        </mxCell>
        <mxCell id="6TqKGEjyONFh63FSuyH1-35" value="nombre" style="ellipse;whiteSpace=wrap;html=1;" parent="1" vertex="1">
          <mxGeometry x="570" y="10" width="90" height="50" as="geometry" />
        </mxCell>
        <mxCell id="6TqKGEjyONFh63FSuyH1-36" value="dirección" style="ellipse;whiteSpace=wrap;html=1;" parent="1" vertex="1">
          <mxGeometry x="705" y="15" width="90" height="40" as="geometry" />
        </mxCell>
        <mxCell id="6TqKGEjyONFh63FSuyH1-37" value="" style="endArrow=none;html=1;entryX=0.5;entryY=1;entryDx=0;entryDy=0;exitX=0.875;exitY=-0.033;exitDx=0;exitDy=0;exitPerimeter=0;" parent="1" source="6TqKGEjyONFh63FSuyH1-4" target="6TqKGEjyONFh63FSuyH1-36" edge="1">
          <mxGeometry width="50" height="50" relative="1" as="geometry">
            <mxPoint x="620" y="100" as="sourcePoint" />
            <mxPoint x="670" y="50" as="targetPoint" />
          </mxGeometry>
        </mxCell>
        <mxCell id="6TqKGEjyONFh63FSuyH1-38" value="" style="endArrow=none;html=1;exitX=0.25;exitY=0;exitDx=0;exitDy=0;entryX=0.5;entryY=1;entryDx=0;entryDy=0;" parent="1" source="6TqKGEjyONFh63FSuyH1-4" target="6TqKGEjyONFh63FSuyH1-35" edge="1">
          <mxGeometry width="50" height="50" relative="1" as="geometry">
            <mxPoint x="495" y="115" as="sourcePoint" />
            <mxPoint x="550" y="220" as="targetPoint" />
          </mxGeometry>
        </mxCell>
        <mxCell id="6TqKGEjyONFh63FSuyH1-39" value="" style="endArrow=none;html=1;exitX=0;exitY=0.5;exitDx=0;exitDy=0;entryX=0.5;entryY=1;entryDx=0;entryDy=0;" parent="1" source="6TqKGEjyONFh63FSuyH1-4" target="6TqKGEjyONFh63FSuyH1-34" edge="1">
          <mxGeometry width="50" height="50" relative="1" as="geometry">
            <mxPoint x="425" y="160" as="sourcePoint" />
            <mxPoint x="475" y="110" as="targetPoint" />
          </mxGeometry>
        </mxCell>
        <mxCell id="6TqKGEjyONFh63FSuyH1-43" value="vendido" style="rhombus;whiteSpace=wrap;html=1;" parent="1" vertex="1">
          <mxGeometry x="390" y="270" width="80" height="80" as="geometry" />
        </mxCell>
        <mxCell id="6TqKGEjyONFh63FSuyH1-46" value="email" style="rounded=0;whiteSpace=wrap;html=1;" parent="1" vertex="1">
          <mxGeometry x="735" y="110" width="60" height="30" as="geometry" />
        </mxCell>
        <mxCell id="6TqKGEjyONFh63FSuyH1-47" value="" style="endArrow=none;html=1;entryX=0;entryY=0.5;entryDx=0;entryDy=0;startArrow=none;" parent="1" source="6TqKGEjyONFh63FSuyH1-4" target="6TqKGEjyONFh63FSuyH1-46" edge="1">
          <mxGeometry width="50" height="50" relative="1" as="geometry">
            <mxPoint x="650" y="300" as="sourcePoint" />
            <mxPoint x="700" y="250" as="targetPoint" />
            <Array as="points">
              <mxPoint x="650" y="80" />
            </Array>
          </mxGeometry>
        </mxCell>
        <mxCell id="6TqKGEjyONFh63FSuyH1-48" value="" style="endArrow=none;html=1;exitX=0.5;exitY=1;exitDx=0;exitDy=0;" parent="1" source="6TqKGEjyONFh63FSuyH1-43" target="6TqKGEjyONFh63FSuyH1-49" edge="1">
          <mxGeometry width="50" height="50" relative="1" as="geometry">
            <mxPoint x="440" y="390" as="sourcePoint" />
            <mxPoint x="440" y="340" as="targetPoint" />
          </mxGeometry>
        </mxCell>
        <mxCell id="6TqKGEjyONFh63FSuyH1-49" value="cantidad" style="ellipse;whiteSpace=wrap;html=1;" parent="1" vertex="1">
          <mxGeometry x="385" y="380" width="90" height="40" as="geometry" />
        </mxCell>
        <mxCell id="6TqKGEjyONFh63FSuyH1-4" value="Cliente" style="rounded=0;whiteSpace=wrap;html=1;" parent="1" vertex="1">
          <mxGeometry x="590" y="80" width="120" height="60" as="geometry" />
        </mxCell>
        <mxCell id="6TqKGEjyONFh63FSuyH1-51" value="Pedido" style="rounded=0;whiteSpace=wrap;html=1;" parent="1" vertex="1">
          <mxGeometry x="570" y="280" width="120" height="60" as="geometry" />
        </mxCell>
        <mxCell id="6TqKGEjyONFh63FSuyH1-53" value="" style="endArrow=none;html=1;" parent="1" edge="1">
          <mxGeometry width="50" height="50" relative="1" as="geometry">
            <mxPoint x="630" y="280" as="sourcePoint" />
            <mxPoint x="630" y="141" as="targetPoint" />
          </mxGeometry>
        </mxCell>
        <mxCell id="6TqKGEjyONFh63FSuyH1-54" value="nombre" style="ellipse;whiteSpace=wrap;html=1;" parent="1" vertex="1">
          <mxGeometry x="120" y="560" width="100" height="50" as="geometry" />
        </mxCell>
        <mxCell id="6TqKGEjyONFh63FSuyH1-55" value="" style="endArrow=none;html=1;entryX=0.392;entryY=1.05;entryDx=0;entryDy=0;entryPerimeter=0;" parent="1" target="6TqKGEjyONFh63FSuyH1-18" edge="1">
          <mxGeometry width="50" height="50" relative="1" as="geometry">
            <mxPoint x="165" y="560" as="sourcePoint" />
            <mxPoint x="215" y="510" as="targetPoint" />
          </mxGeometry>
        </mxCell>
        <mxCell id="6TqKGEjyONFh63FSuyH1-56" value="&lt;b&gt;&lt;u&gt;id&lt;/u&gt;&lt;/b&gt;" style="ellipse;whiteSpace=wrap;html=1;" parent="1" vertex="1">
          <mxGeometry x="50" y="550" width="70" height="30" as="geometry" />
        </mxCell>
        <mxCell id="6TqKGEjyONFh63FSuyH1-57" value="" style="endArrow=none;html=1;entryX=0;entryY=1;entryDx=0;entryDy=0;" parent="1" target="6TqKGEjyONFh63FSuyH1-18" edge="1">
          <mxGeometry width="50" height="50" relative="1" as="geometry">
            <mxPoint x="100" y="550" as="sourcePoint" />
            <mxPoint x="150" y="500" as="targetPoint" />
          </mxGeometry>
        </mxCell>
        <mxCell id="6TqKGEjyONFh63FSuyH1-58" value="descripción" style="ellipse;whiteSpace=wrap;html=1;" parent="1" vertex="1">
          <mxGeometry x="250" y="545" width="70" height="40" as="geometry" />
        </mxCell>
        <mxCell id="6TqKGEjyONFh63FSuyH1-59" value="" style="endArrow=none;html=1;exitX=0;exitY=0;exitDx=0;exitDy=0;entryX=0.75;entryY=1;entryDx=0;entryDy=0;" parent="1" source="6TqKGEjyONFh63FSuyH1-58" target="6TqKGEjyONFh63FSuyH1-18" edge="1">
          <mxGeometry width="50" height="50" relative="1" as="geometry">
            <mxPoint x="190" y="575" as="sourcePoint" />
            <mxPoint x="240" y="525" as="targetPoint" />
          </mxGeometry>
        </mxCell>
        <mxCell id="6TqKGEjyONFh63FSuyH1-60" value="&lt;b&gt;&lt;u&gt;id&lt;/u&gt;&lt;/b&gt;" style="ellipse;whiteSpace=wrap;html=1;" parent="1" vertex="1">
          <mxGeometry x="585" y="370" width="70" height="30" as="geometry" />
        </mxCell>
        <mxCell id="6TqKGEjyONFh63FSuyH1-61" value="" style="endArrow=none;html=1;exitX=0.5;exitY=0;exitDx=0;exitDy=0;" parent="1" source="6TqKGEjyONFh63FSuyH1-60" edge="1">
          <mxGeometry width="50" height="50" relative="1" as="geometry">
            <mxPoint x="570" y="390" as="sourcePoint" />
            <mxPoint x="620" y="340" as="targetPoint" />
          </mxGeometry>
        </mxCell>
        <mxCell id="6TqKGEjyONFh63FSuyH1-62" value="realiza" style="rhombus;whiteSpace=wrap;html=1;" parent="1" vertex="1">
          <mxGeometry x="590" y="170" width="80" height="80" as="geometry" />
        </mxCell>
        <mxCell id="6TqKGEjyONFh63FSuyH1-65" value="teléfono" style="ellipse;whiteSpace=wrap;html=1;" parent="1" vertex="1">
          <mxGeometry x="450" y="100" width="80" height="40" as="geometry" />
        </mxCell>
        <mxCell id="6TqKGEjyONFh63FSuyH1-66" value="" style="endArrow=none;html=1;exitX=1;exitY=0.5;exitDx=0;exitDy=0;" parent="1" source="6TqKGEjyONFh63FSuyH1-65" edge="1">
          <mxGeometry width="50" height="50" relative="1" as="geometry">
            <mxPoint x="535" y="170" as="sourcePoint" />
            <mxPoint x="585" y="120" as="targetPoint" />
          </mxGeometry>
        </mxCell>
        <mxCell id="6TqKGEjyONFh63FSuyH1-67" value="" style="endArrow=none;html=1;" parent="1" target="6TqKGEjyONFh63FSuyH1-68" edge="1">
          <mxGeometry width="50" height="50" relative="1" as="geometry">
            <mxPoint x="690" y="325" as="sourcePoint" />
            <mxPoint x="740" y="325" as="targetPoint" />
          </mxGeometry>
        </mxCell>
        <mxCell id="6TqKGEjyONFh63FSuyH1-68" value="fecha" style="ellipse;whiteSpace=wrap;html=1;" parent="1" vertex="1">
          <mxGeometry x="725" y="300" width="80" height="35" as="geometry" />
        </mxCell>
        <mxCell id="6TqKGEjyONFh63FSuyH1-72" value="n" style="text;html=1;strokeColor=none;fillColor=none;align=center;verticalAlign=middle;whiteSpace=wrap;rounded=0;" parent="1" vertex="1">
          <mxGeometry x="190" y="335" width="40" height="20" as="geometry" />
        </mxCell>
        <mxCell id="6TqKGEjyONFh63FSuyH1-73" value="1" style="text;html=1;strokeColor=none;fillColor=none;align=center;verticalAlign=middle;whiteSpace=wrap;rounded=0;" parent="1" vertex="1">
          <mxGeometry x="190" y="440" width="40" height="20" as="geometry" />
        </mxCell>
        <mxCell id="6TqKGEjyONFh63FSuyH1-74" value="n" style="text;html=1;strokeColor=none;fillColor=none;align=center;verticalAlign=middle;whiteSpace=wrap;rounded=0;" parent="1" vertex="1">
          <mxGeometry x="310" y="290" width="40" height="20" as="geometry" />
        </mxCell>
        <mxCell id="6TqKGEjyONFh63FSuyH1-75" value="1" style="text;html=1;strokeColor=none;fillColor=none;align=center;verticalAlign=middle;whiteSpace=wrap;rounded=0;" parent="1" vertex="1">
          <mxGeometry x="490" y="290" width="40" height="20" as="geometry" />
        </mxCell>
        <mxCell id="6TqKGEjyONFh63FSuyH1-76" value="n" style="text;html=1;strokeColor=none;fillColor=none;align=center;verticalAlign=middle;whiteSpace=wrap;rounded=0;" parent="1" vertex="1">
          <mxGeometry x="590" y="250" width="40" height="20" as="geometry" />
        </mxCell>
        <mxCell id="6TqKGEjyONFh63FSuyH1-77" value="1" style="text;html=1;strokeColor=none;fillColor=none;align=center;verticalAlign=middle;whiteSpace=wrap;rounded=0;" parent="1" vertex="1">
          <mxGeometry x="590" y="150" width="40" height="20" as="geometry" />
        </mxCell>
        <mxCell id="6TqKGEjyONFh63FSuyH1-78" value="" style="endArrow=none;html=1;" parent="1" edge="1">
          <mxGeometry width="50" height="50" relative="1" as="geometry">
            <mxPoint x="429.5" y="270" as="sourcePoint" />
            <mxPoint x="429.5" y="220" as="targetPoint" />
          </mxGeometry>
        </mxCell>
        <mxCell id="6TqKGEjyONFh63FSuyH1-79" value="precio" style="ellipse;whiteSpace=wrap;html=1;" parent="1" vertex="1">
          <mxGeometry x="385" y="190" width="95" height="30" as="geometry" />
        </mxCell>
        <mxCell id="6TqKGEjyONFh63FSuyH1-80" value="método de envío" style="ellipse;whiteSpace=wrap;html=1;" parent="1" vertex="1">
          <mxGeometry x="680" y="350" width="80" height="40" as="geometry" />
        </mxCell>
        <mxCell id="6TqKGEjyONFh63FSuyH1-81" value="" style="endArrow=none;html=1;exitX=0.075;exitY=0.275;exitDx=0;exitDy=0;exitPerimeter=0;" parent="1" source="6TqKGEjyONFh63FSuyH1-80" edge="1">
          <mxGeometry width="50" height="50" relative="1" as="geometry">
            <mxPoint x="620" y="390" as="sourcePoint" />
            <mxPoint x="670" y="340" as="targetPoint" />
          </mxGeometry>
        </mxCell>
        <mxCell id="6TqKGEjyONFh63FSuyH1-82" value="forma de pago" style="ellipse;whiteSpace=wrap;html=1;" parent="1" vertex="1">
          <mxGeometry x="715" y="230" width="80" height="50" as="geometry" />
        </mxCell>
        <mxCell id="6TqKGEjyONFh63FSuyH1-85" value="" style="endArrow=none;html=1;entryX=0;entryY=1;entryDx=0;entryDy=0;" parent="1" target="6TqKGEjyONFh63FSuyH1-82" edge="1">
          <mxGeometry width="50" height="50" relative="1" as="geometry">
            <mxPoint x="690" y="300" as="sourcePoint" />
            <mxPoint x="740" y="250" as="targetPoint" />
          </mxGeometry>
        </mxCell>
        <mxCell id="6TqKGEjyONFh63FSuyH1-86" value="" style="endArrow=none;html=1;exitX=0;exitY=1;exitDx=0;exitDy=0;" parent="1" source="6TqKGEjyONFh63FSuyH1-51" target="6TqKGEjyONFh63FSuyH1-87" edge="1">
          <mxGeometry width="50" height="50" relative="1" as="geometry">
            <mxPoint x="550" y="400" as="sourcePoint" />
            <mxPoint x="580" y="340" as="targetPoint" />
          </mxGeometry>
        </mxCell>
        <mxCell id="6TqKGEjyONFh63FSuyH1-87" value="&lt;font style=&quot;vertical-align: inherit&quot;&gt;&lt;font style=&quot;vertical-align: inherit&quot;&gt;id cliente&lt;/font&gt;&lt;/font&gt;" style="ellipse;whiteSpace=wrap;html=1;dashed=1;" parent="1" vertex="1">
          <mxGeometry x="500" y="380" width="80" height="40" as="geometry" />
        </mxCell>
        <mxCell id="6TqKGEjyONFh63FSuyH1-88" value="cantidad disponible" style="ellipse;whiteSpace=wrap;html=1;dashed=1;" parent="1" vertex="1">
          <mxGeometry x="280" y="480" width="100" height="50" as="geometry" />
        </mxCell>
        <mxCell id="6TqKGEjyONFh63FSuyH1-89" value="" style="endArrow=none;html=1;entryX=0;entryY=0.5;entryDx=0;entryDy=0;" parent="1" target="6TqKGEjyONFh63FSuyH1-88" edge="1">
          <mxGeometry width="50" height="50" relative="1" as="geometry">
            <mxPoint x="250" y="510" as="sourcePoint" />
            <mxPoint x="300" y="460" as="targetPoint" />
          </mxGeometry>
        </mxCell>
        <mxCell id="6TqKGEjyONFh63FSuyH1-90" value="imagen" style="ellipse;whiteSpace=wrap;html=1;" parent="1" vertex="1">
          <mxGeometry x="70" y="210" width="80" height="40" as="geometry" />
        </mxCell>
        <mxCell id="6TqKGEjyONFh63FSuyH1-91" value="" style="endArrow=none;html=1;exitX=0.075;exitY=-0.05;exitDx=0;exitDy=0;exitPerimeter=0;entryX=1;entryY=1;entryDx=0;entryDy=0;" parent="1" source="6TqKGEjyONFh63FSuyH1-2" target="6TqKGEjyONFh63FSuyH1-90" edge="1">
          <mxGeometry width="50" height="50" relative="1" as="geometry">
            <mxPoint x="85" y="290" as="sourcePoint" />
            <mxPoint x="135" y="240" as="targetPoint" />
          </mxGeometry>
        </mxCell>
        <mxCell id="6TqKGEjyONFh63FSuyH1-92" value="imagen" style="ellipse;whiteSpace=wrap;html=1;" parent="1" vertex="1">
          <mxGeometry x="20" y="470" width="80" height="40" as="geometry" />
        </mxCell>
        <mxCell id="6TqKGEjyONFh63FSuyH1-93" value="" style="endArrow=none;html=1;exitX=1;exitY=0.5;exitDx=0;exitDy=0;" parent="1" source="6TqKGEjyONFh63FSuyH1-92" edge="1">
          <mxGeometry width="50" height="50" relative="1" as="geometry">
            <mxPoint x="80" y="540" as="sourcePoint" />
            <mxPoint x="130" y="490" as="targetPoint" />
          </mxGeometry>
        </mxCell>
      </root>
    </mxGraphModel>
  </diagram>
</mxfile>
